<svg xmlns="http://www.w3.org/2000/svg" viewBox="0 0 400 250">
  <!-- Background -->
  <rect width="400" height="250" fill="#e9f5ff" />
  
  <!-- Circuit board pattern -->
  <g fill="none" stroke="#1a5276" stroke-width="2">
    <path d="M0 50 H400 M0 100 H400 M0 150 H400 M0 200 H400" />
    <path d="M50 0 V250 M100 0 V250 M150 0 V250 M200 0 V250 M250 0 V250 M300 0 V250 M350 0 V250" />
  </g>
  
  <!-- Circuit nodes -->
  <g fill="#e74c3c">
    <circle cx="50" cy="50" r="6" />
    <circle cx="150" cy="50" r="6" />
    <circle cx="250" cy="50" r="6" />
    <circle cx="350" cy="50" r="6" />
    <circle cx="100" cy="100" r="6" />
    <circle cx="200" cy="100" r="6" />
    <circle cx="300" cy="100" r="6" />
    <circle cx="50" cy="150" r="6" />
    <circle cx="150" cy="150" r="6" />
    <circle cx="250" cy="150" r="6" />
    <circle cx="350" cy="150" r="6" />
    <circle cx="100" cy="200" r="6" />
    <circle cx="200" cy="200" r="6" />
    <circle cx="300" cy="200" r="6" />
  </g>
  
  <!-- Computer/processor icon -->
  <rect x="150" y="80" width="100" height="90" rx="5" fill="#1a5276" />
  <rect x="160" y="90" width="80" height="50" rx="2" fill="#f5f5f5" />
  <g fill="#34495e">
    <rect x="165" y="100" width="15" height="3" />
    <rect x="165" y="110" width="25" height="3" />
    <rect x="165" y="120" width="20" height="3" />
    <rect x="165" y="130" width="30" height="3" />
  </g>
  <g fill="#e74c3c">
    <circle cx="190" cy="155" r="5" />
    <circle cx="210" cy="155" r="5" />
  </g>
</svg>
