<svg xmlns="http://www.w3.org/2000/svg" viewBox="0 0 1000 600">
  <!-- Background gradient -->
  <defs>
    <linearGradient id="bgGradient" x1="0%" y1="0%" x2="100%" y2="100%">
      <stop offset="0%" stop-color="#2c3e50" />
      <stop offset="100%" stop-color="#1a2a38" />
    </linearGradient>
    
    <!-- Pattern definitions -->
    <pattern id="gridPattern" width="40" height="40" patternUnits="userSpaceOnUse">
      <path d="M 40 0 L 0 0 0 40" fill="none" stroke="#34495e" stroke-width="0.5" opacity="0.3"/>
    </pattern>
    
    <!-- Circuit board pattern -->
    <pattern id="circuitPattern" width="100" height="100" patternUnits="userSpaceOnUse">
      <circle cx="50" cy="50" r="2" fill="#3498db" opacity="0.5"/>
      <path d="M 50 50 L 80 50" stroke="#3498db" stroke-width="1" opacity="0.5"/>
      <path d="M 50 50 L 50 80" stroke="#3498db" stroke-width="1" opacity="0.5"/>
      <path d="M 50 50 L 20 50" stroke="#3498db" stroke-width="1" opacity="0.5"/>
      <path d="M 50 50 L 50 20" stroke="#3498db" stroke-width="1" opacity="0.5"/>
      <circle cx="80" cy="50" r="1.5" fill="#3498db" opacity="0.5"/>
      <circle cx="50" cy="80" r="1.5" fill="#3498db" opacity="0.5"/>
      <circle cx="20" cy="50" r="1.5" fill="#3498db" opacity="0.5"/>
      <circle cx="50" cy="20" r="1.5" fill="#3498db" opacity="0.5"/>
    </pattern>
  </defs>
  
  <!-- Main background -->
  <rect width="1000" height="600" fill="url(#bgGradient)" />
  
  <!-- Grid overlay -->
  <rect width="1000" height="600" fill="url(#gridPattern)" />
  
  <!-- Circuit board elements -->
  <rect width="1000" height="600" fill="url(#circuitPattern)" />
  
  <!-- Abstract gear elements -->
  <circle cx="150" cy="150" r="80" fill="none" stroke="#3498db" stroke-width="2" opacity="0.2"/>
  <circle cx="150" cy="150" r="60" fill="none" stroke="#3498db" stroke-width="2" opacity="0.3"/>
  <circle cx="150" cy="150" r="40" fill="none" stroke="#3498db" stroke-width="2" opacity="0.4"/>
  
  <!-- Abstract blueprint lines -->
  <line x1="700" y1="100" x2="900" y2="100" stroke="#3498db" stroke-width="1" opacity="0.6"/>
  <line x1="700" y1="120" x2="900" y2="120" stroke="#3498db" stroke-width="1" opacity="0.6"/>
  <line x1="700" y1="140" x2="850" y2="140" stroke="#3498db" stroke-width="1" opacity="0.6"/>
  <line x1="700" y1="160" x2="900" y2="160" stroke="#3498db" stroke-width="1" opacity="0.6"/>
  <line x1="700" y1="180" x2="830" y2="180" stroke="#3498db" stroke-width="1" opacity="0.6"/>
  
  <!-- Floating particles -->
  <circle cx="300" cy="400" r="2" fill="#3498db" opacity="0.7"/>
  <circle cx="350" cy="420" r="1.5" fill="#3498db" opacity="0.7"/>
  <circle cx="380" cy="380" r="1.2" fill="#3498db" opacity="0.7"/>
  <circle cx="420" cy="410" r="1.8" fill="#3498db" opacity="0.7"/>
  <circle cx="450" cy="390" r="1.3" fill="#3498db" opacity="0.7"/>
  <circle cx="500" cy="430" r="2" fill="#3498db" opacity="0.7"/>
  <circle cx="530" cy="400" r="1.5" fill="#3498db" opacity="0.7"/>
  <circle cx="600" cy="380" r="1.2" fill="#3498db" opacity="0.7"/>
  
  <!-- Abstract hexagon elements -->
  <polygon points="800,450 825,490 875,490 900,450 875,410 825,410" fill="none" stroke="#3498db" stroke-width="1.5" opacity="0.4"/>
  <polygon points="780,430 805,470 855,470 880,430 855,390 805,390" fill="none" stroke="#3498db" stroke-width="1.5" opacity="0.3"/>
  <polygon points="820,470 845,510 895,510 920,470 895,430 845,430" fill="none" stroke="#3498db" stroke-width="1.5" opacity="0.2"/>
</svg>
